<?xml version="1.0" encoding="UTF-8"?>
<svg id="Capa_1" xmlns="http://www.w3.org/2000/svg" version="1.1" viewBox="0 0 48 46">
  <!-- Generator: Adobe Illustrator 30.0.0, SVG Export Plug-In . SVG Version: 2.1.1 Build 123)  -->
  <defs>
    <style>
      .st0 {
        fill: #f8ad1f;
      }

      .st1 {
        fill: #340762;
      }
    </style>
  </defs>
  <rect class="st1" y="-1" width="48" height="48" transform="translate(1 47) rotate(-90)"/>
  <g>
    <path class="st0" d="M27.7,3.5h0c-4.1,0-7.4,3.3-7.4,7.4v8.5h0c4.1,0,7.4-3.3,7.4-7.4V3.5Z"/>
    <path class="st0" d="M20.3,42.6h0c4.1,0,7.4-3.3,7.4-7.4v-8.5s0,0,0,0c-4.1,0-7.4,3.3-7.4,7.4v8.5Z"/>
    <path class="st0" d="M4.5,19.3h0c0,4.1,3.3,7.4,7.4,7.4h8.4c0-4.1-3.3-7.4-7.4-7.4H4.5Z"/>
    <path class="st0" d="M36.2,19.3h-8.5c0,4.1,3.3,7.4,7.4,7.4h8.5c0-4.1-3.3-7.4-7.4-7.4Z"/>
  </g>
</svg>