<?xml version="1.0" encoding="UTF-8"?>
<svg id="Capa_1" xmlns="http://www.w3.org/2000/svg" version="1.1" viewBox="0 0 512 512">
  <!-- Generator: Adobe Illustrator 30.0.0, SVG Export Plug-In . SVG Version: 2.1.1 Build 123)  -->
  <defs>
    <style>
      .st0 {
        fill: #f8ad1f;
      }

      .st1 {
        fill: #340762;
      }
    </style>
  </defs>
  <rect class="st1" x="0" y="0" width="511" height="511" transform="translate(0 511) rotate(-90)"/>
  <g>
    <path class="st0" d="M295.7,43h0c-44.5,0-80.6,36.1-80.6,80.6v92.1h0c44.5,0,80.6-36.1,80.6-80.6V43Z"/>
    <path class="st0" d="M215.1,469h0c44.5,0,80.6-36.1,80.6-80.6v-92.1s0,0,0,0c-44.5,0-80.6,36.1-80.6,80.6v92.1Z"/>
    <path class="st0" d="M43,215.7h0c0,44.5,36.1,80.6,80.6,80.6h91.6c0-44.5-36.1-80.6-80.6-80.6H43Z"/>
    <path class="st0" d="M388.4,215.7h-92.7c0,44.5,36.1,80.6,80.6,80.6h92.7c0-44.5-36.1-80.6-80.6-80.6Z"/>
  </g>
</svg>